<svg width="25" height="24" viewBox="0 0 25 24" fill="none" xmlns="http://www.w3.org/2000/svg">
<path fill-rule="evenodd" clip-rule="evenodd" d="M10.9944 12.0012L5.88094 14.992L1.82766 13.1314L0.995605 14.9618L3.76174 16.2315L2.24022 17.1214L3.2305 18.859L4.75177 17.9693L4.45421 21.0305L6.43493 21.2156L6.87098 16.7298L11.9868 13.7376V19.7528L8.36693 22.3801L9.5417 23.9988L11.9868 22.2241V24H13.9868V22.224L16.4321 23.9988L17.6069 22.3801L13.9868 19.7527V13.7514L19.1141 16.7503L19.5502 21.2367L21.531 21.0515L21.2333 17.9898L22.7549 18.8798L23.7452 17.1422L22.2239 16.2523L24.9896 14.9828L24.1575 13.1525L20.1047 15.0128L14.9556 12.0012L20.0888 8.99883L24.1684 10.8715L25.0005 9.04117L22.208 7.75934L23.7472 6.85905L22.757 5.12142L21.2471 6.0045L21.5419 2.97248L19.5611 2.78729L19.1279 7.244L13.9868 10.251V4.26755L17.6301 1.62327L16.4554 0.00465947L13.9868 1.79629V0H11.9868V1.76246L9.56495 0.00465947L8.39017 1.62327L11.9868 4.23371V10.2648L6.88669 7.28181L6.44778 2.7665L4.46706 2.95168L4.76749 6.04231L3.2285 5.14217L2.23821 6.8798L3.74798 7.76285L1.00846 9.02038L1.84051 10.8507L5.86719 9.00235L10.9944 12.0012Z" fill="url(#paint0_linear_9_4020)"/>
<defs>
<linearGradient id="paint0_linear_9_4020" x1="12.998" y1="0" x2="12.998" y2="24" gradientUnits="userSpaceOnUse">
<stop stop-color="#B2D4F7"/>
<stop offset="1" stop-color="#D9E2F3"/>
</linearGradient>
</defs>
</svg>
