<svg width="28" height="28" viewBox="0 0 28 28" fill="none" xmlns="http://www.w3.org/2000/svg">
<path fill-rule="evenodd" clip-rule="evenodd" d="M8 21.665C3.40237 20.4598 0 16.1419 0 11C0 4.92487 4.74949 0 10.6083 0C12.9052 0 15.0317 0.756968 16.7682 2.04345C17.9536 0.785388 19.6351 0 21.5 0C25.0898 0 28 2.91015 28 6.5C28 8.06732 27.4453 9.50508 26.5214 10.6277C27.4467 11.8256 28 13.3458 28 15C28 18.866 24.9776 22 21.2493 22C21.1658 22 21.0827 21.9984 21 21.9953V20H21.3029V19.9996C23.8359 19.9695 26 17.8105 26 15C26 12.1696 23.8053 10 21.2493 10C20.5272 10 19.8339 10.1732 19.2108 10.4855C19.1791 9.90367 19.0937 9.33674 18.9599 8.78992L18.9569 8.79115C18.0091 4.85004 14.5839 2 10.6083 2C5.92179 2 2 5.96046 2 11C2 15.0657 4.55261 18.4291 8 19.5772V21.665ZM25.0758 9.23236C25.6555 8.4748 26 7.52763 26 6.5C26 4.01472 23.9853 2 21.5 2C20.2266 2 19.0767 2.52892 18.2581 3.37905C19.4493 4.66438 20.3421 6.24924 20.821 8.01387C20.9626 8.00467 21.1054 8.00001 21.2493 8.00001C22.67 8.00001 23.9882 8.4551 25.0758 9.23236ZM11.168 20.4453L15.168 14.4453L16.8321 15.5547L13.8685 20H17H18.9558L17.8107 21.5855L13.4773 27.5855L11.856 26.4145L15.0442 22H12H10.1315L11.168 20.4453Z" fill="white"/>
</svg>
